REM MD5 89827ca31e71323fc5f32987644216f7
FILE "Next Station 2 (Italy) (En,It).bin" BINARY
  TRACK 01 MODE2/2352
    INDEX 01 00:00:00
  TRACK 02 AUDIO
    INDEX 00 29:02:21
    INDEX 01 29:04:21
  TRACK 03 AUDIO
    INDEX 00 30:29:40
    INDEX 01 30:31:40
  TRACK 04 AUDIO
    INDEX 00 31:33:05
    INDEX 01 31:35:05
REM LEADOUT 36:42:20
